
<svg width="100" height="100" viewBox="0 0 100 100" fill="none" xmlns="http://www.w3.org/2000/svg">
  <rect width="100" height="100" rx="20" fill="#1e293b"/>
  <rect x="20" y="20" width="25" height="25" fill="white"/>
  <rect x="25" y="25" width="15" height="15" fill="#1e293b"/>
  <rect x="55" y="20" width="25" height="25" fill="white"/>
  <rect x="60" y="25" width="15" height="15" fill="#1e293b"/>
  <rect x="20" y="55" width="25" height="25" fill="white"/>
  <rect x="25" y="60" width="15" height="15" fill="#1e293b"/>
  <rect x="55" y="55" width="6.25" height="6.25" fill="white"/>
  <rect x="64.25" y="55" width="6.25" height="6.25" fill="white"/>
  <rect x="73.5" y="55" width="6.25" height="6.25" fill="white"/>
  <rect x="55" y="64.25" width="6.25" height="6.25" fill="white"/>
  <rect x="64.25" y="64.25" width="6.25" height="6.25" fill="white"/>
  <rect x="73.5" y="64.25" width="6.25" height="6.25" fill="white"/>
  <rect x="55" y="73.5" width="6.25" height="6.25" fill="white"/>
  <rect x="64.25" y="73.5" width="6.25" height="6.25" fill="white"/>
  <rect x="73.5" y="73.5" width="6.25" height="6.25" fill="white"/>
</svg>
